# xmcd CD database file
#
# Track frame offsets:
#	150
#	22202
#	45002
#	62960
#	81612
#	100950
#	119342
#	133825
#	154267
#
# Disc length: 2493 seconds
#
# Revision: 0
# Processed by: cddbd v1.5PL3 Copyright (c) Steve Scherf et al.
# Submitted via: CDex 1.50
#
DISCID=7d09bb09
DTITLE=白田あゆみ - あなたの瞳に映りたい
DYEAR=1988
DGENRE=JPop
TTITLE0=CALL ME
TTITLE1=Hello Friends
TTITLE2=ヌーベル（あなたといるときの時間)
TTITLE3=恋しくて
TTITLE4=少年のまま
TTITLE5=Remember Me
TTITLE6=見つめていたい
TTITLE7=悲しい予感
TTITLE8=クラスメイトには帰れない
EXTD=YEAR: 1988/02/01
EXTT0=
EXTT1=
EXTT2=
EXTT3=
EXTT4=
EXTT5=
EXTT6=
EXTT7=
EXTT8=
PLAYORDER=
